# xmcd
#
# Track frame offsets:
#	150
#	10125
#	20648
#	34152
#	45385
#	55018
#	64834
#	75691
#	85841
#	98072
#	109038
#	121806
#	132428
#	142458
#	153371
#	163823
#	175340
#	187338
#	198183
#	208084
#	219746
#	231762
#	241736
#	251162
#	262476
#	271205
#	283050
#	293476
#	303799
#
# Disc length: 4187 seconds
#
# Revision: 1
# Processed by: cddbd v1.5.1PL0 Copyright (c) Steve Scherf et al.
# Submitted via: audiograbber 1.83.01
#
DISCID=ae10591d
DTITLE=Marvin Rainwater - Classic Recordings  CD1
DYEAR=1900
DGENRE=
TTITLE0=I gotta go get my Baby
TTITLE1=Daddy's glad you came home
TTITLE2=Albino
TTITLE3=Sticks and Stones
TTITLE4=Tea Bag Romeo
TTITLE5=Tennessee Houn' Dog Yodel
TTITLE6=Dem low, down Blues
TTITLE7=Where do we go from here
TTITLE8=What am i supposed to do
TTITLE9=I feel like leaving Town
TTITLE10=Why did you have to go and leave me
TTITLE11=Cause, i'm a dreamer
TTITLE12=Wayward Angel   [alternate]
TTITLE13=My Love is real
TTITLE14=Lucky Star
TTITLE15=The Majesty of Love    [+ Conny Francis]
TTITLE16=Whole lotta Woman    [undubbed Vers.]
TTITLE17=Nothin' needs nothin'
TTITLE18=No good runaround
TTITLE19=Let me Live again    [+ Patty Rainwater]
TTITLE20=Lonely Island
TTITLE21=Born to be lonesome
TTITLE22=A Song of new Love
TTITLE23=Halfbreed
TTITLE24=Young Girls
TTITLE25=The pale faced Indian (Lament of the Cherokee Nation)
TTITLE26=Wayward Angel
TTITLE27=Yestersay's Kisses
TTITLE28=You're not happy
EXTD=
EXTT0=
EXTT1=
EXTT2=
EXTT3=
EXTT4=
EXTT5=
EXTT6=
EXTT7=
EXTT8=
EXTT9=
EXTT10=
EXTT11=
EXTT12=
EXTT13=
EXTT14=
EXTT15=
EXTT16=
EXTT17=
EXTT18=
EXTT19=
EXTT20=
EXTT21=
EXTT22=
EXTT23=
EXTT24=
EXTT25=
EXTT26=
EXTT27=
EXTT28=
PLAYORDER=
